HIERARCHY
ROOT Hips
{
  OFFSET 263.056 91.6644 -274.608
  CHANNELS 6 Xposition Yposition Zposition Zrotation Xrotation Yrotation
  JOINT LeftUpLeg
  {
    OFFSET 8.64259 1.95398 -2.38835
    CHANNELS 3 Zrotation Xrotation Yrotation
    JOINT LeftLeg
    {
      OFFSET 43.7702 0 0
      CHANNELS 3 Zrotation Xrotation Yrotation
      JOINT LeftFoot
      {
        OFFSET 40.6238 0 0
        CHANNELS 3 Zrotation Xrotation Yrotation
        JOINT LeftToeBase
        {
          OFFSET 12.7242 0 0
          CHANNELS 3 Zrotation Xrotation Yrotation
          End Site
          {
            OFFSET 0 0 0
          }
        }
      }
    }
  }
  JOINT RightUpLeg
  {
    OFFSET -8.2249 1.95398 -2.59336
    CHANNELS 3 Zrotation Xrotation Yrotation
    JOINT RightLeg
    {
      OFFSET 43.5653 0 0
      CHANNELS 3 Zrotation Xrotation Yrotation
      JOINT RightFoot
      {
        OFFSET 40.6238 0 0
        CHANNELS 3 Zrotation Xrotation Yrotation
        JOINT RightToeBase
        {
          OFFSET 12.7242 0 0
          CHANNELS 3 Zrotation Xrotation Yrotation
          End Site
          {
            OFFSET 0 0 0
          }
        }
      }
    }
  }
  JOINT Spine
  {
    OFFSET 0.165834 0.87714 6.61349
    CHANNELS 3 Zrotation Xrotation Yrotation
    JOINT Spine1
    {
      OFFSET 7.38963 1.71661e-005 0
      CHANNELS 3 Zrotation Xrotation Yrotation
      JOINT Spine2
      {
        OFFSET 11.9445 1.14441e-005 0
        CHANNELS 3 Zrotation Xrotation Yrotation
        JOINT Spine3
        {
          OFFSET 14.7254 4.19617e-005 0
          CHANNELS 3 Zrotation Xrotation Yrotation
          JOINT Spine4
          {
            OFFSET 10.9679 0 0
            CHANNELS 3 Zrotation Xrotation Yrotation
            JOINT RightShoulder
            {
              OFFSET 2.46616 -1.6653 3.69651
              CHANNELS 3 Zrotation Xrotation Yrotation
              JOINT RightArm
              {
                OFFSET 13.0012 0 0
                CHANNELS 3 Zrotation Xrotation Yrotation
                JOINT RightForeArm
                {
                  OFFSET 28.7848 1.52588e-005 0
                  CHANNELS 3 Zrotation Xrotation Yrotation
                  JOINT RightHand
                  {
                    OFFSET 26.5688 1.52588e-005 0
                    CHANNELS 3 Zrotation Xrotation Yrotation
                    End Site
                    {
                      OFFSET 0 0 0
                    }
                  }
                }
              }
            }
            JOINT LeftShoulder
            {
              OFFSET 2.38034 -1.29275 -3.7523
              CHANNELS 3 Zrotation Xrotation Yrotation
              JOINT LeftArm
              {
                OFFSET 16.3182 6.10352e-005 0
                CHANNELS 3 Zrotation Xrotation Yrotation
                JOINT LeftForeArm
                {
                  OFFSET 27.0901 0 0
                  CHANNELS 3 Zrotation Xrotation Yrotation
                  JOINT LeftHand
                  {
                    OFFSET 24.5451 1.52588e-005 0
                    CHANNELS 3 Zrotation Xrotation Yrotation
                    End Site
                    {
                      OFFSET 0 0 0
                    }
                  }
                }
              }
            }
            JOINT Neck
            {
              OFFSET 5.0226 -0.0266342 0
              CHANNELS 3 Zrotation Xrotation Yrotation
              JOINT Head
              {
                OFFSET 6.69364 2.86102e-005 0
                CHANNELS 3 Zrotation Xrotation Yrotation
                End Site
                {
                  OFFSET 0 0 0
                }
              }
            }
          }
        }
      }
    }
  }
}
MOTION
Frames:	12
Frame Time:	0.0416667
-292.304 88.328 -280.385 100.009 -40.8018 103.676 -171.962 17.4314 108.979 -70.3309 -57.3005 8.81817 3.06905 -29.4094 -78.8608 -26.8938 10.862 -103.965 -175.422 16.2688 112.91 -55.4805 -23.7723 -21.2562 -8.83215 20.623 40.8292 119.495 -2.86699 -10.7175 -0.470361 7.5184 -90.8293 11.8261 -1.32529 -1.51237 0.155053 -1.39058 -1.45259 -22.3755 -0.809578 -1.84067 -2.36283 -0.809604 -1.84068 88.269 -57.5381 -101.625 2.11373 -7.30414 -30.7135 17.5765 7.01916 -75.0781 -20.7823 9.59992 -56.1787 -97.1854 -39.8392 64.4072 -47.3989 17.5451 30.3716 14.1588 -6.7425 -93.0481 25.6053 1.78448 3.14635 -3.54775 0.774367 0.0793415 8.82909 1.10838 3.31672 
-289.527 88.8986 -276.871 96.7065 -30.4432 99.5967 176.46 19.4445 100.525 -60.3409 -46.3191 15.4936 20.4027 -24.4407 -16.6419 85.3432 -14.678 -126.962 -177.782 14.3632 110.188 -54.1275 -28.1514 -14.6613 2.87524 20.2525 31.5631 115.328 -14.226 -24.7039 -1.37555 8.97146 -91.1148 8.89916 -3.24067 -1.98 -2.76886 -3.32466 -1.83537 -25.3145 -2.49594 -2.86241 -5.30184 -2.49595 -2.86241 83.1158 -48.854 -111.627 14.8397 4.23371 -4.38451 25.2824 -3.37256 -109.762 -18.4332 9.94453 -65.2761 -99.7381 -42.8928 61.607 -37.9847 10.8188 21.1494 12.1862 -2.05209 -84.5368 29.1905 2.47676 4.70896 13.5342 0.404994 4.45686 5.12973 -0.634717 0.961027 
-284.399 88.5651 -270.835 95.2319 -41.2709 96.7528 -179.703 35.9421 93.9328 -69.2467 12.7334 2.09576 53.0582 -4.92318 0.960435 48.3328 20.7685 -14.117 -177.035 9.95251 104.034 -48.3467 -8.75026 -11.0732 6.25535 13.789 22.5714 115.169 7.87151 1.91212 0.227426 8.44543 -90.5904 9.98717 0.184412 -1.19261 -1.68556 0.131751 -1.19957 -24.2082 0.534187 -1.08216 -4.19561 0.534179 -1.08216 86.1132 -46.1218 -107.954 25.2753 1.48167 10.2195 46.0677 -16.8839 -120.783 -18.9862 13.3895 -75.3057 -97.8377 -42.3453 64.366 -42.2771 12.1597 31.2007 8.0737 -3.69996 -84.4484 29.8101 2.19574 3.53166 11.7931 -2.13846 4.05069 4.29762 -3.07971 -0.395481 
-274.696 91.2232 -260.389 87.1535 -51.2417 86.5883 -173.527 39.0255 91.4553 -40.9016 16.8365 -2.29413 50.3139 -6.48283 4.54995 40.2372 13.9096 9.78038 -177.624 -2.71101 93.163 -32.8555 1.79048 -7.25299 14.0901 8.27538 13.4339 77.8588 20.5328 47.4946 1.52045 7.74357 -89.8175 11.3952 3.11028 0.0403282 -0.27188 3.10904 -0.0967431 -22.8363 2.95426 0.974076 -2.82363 2.95426 0.974082 87.0326 -43.3809 -107.374 29.785 -6.87128 8.46522 -88.7854 -0.967636 -92.9097 31.9325 -24.2806 -52.4715 -95.2512 -40.4627 67.7971 -46.6921 11.3915 38.3353 9.74429 -3.72866 -86.3349 31.0663 2.33728 3.70184 12.2612 -4.09675 3.95525 3.2759 -4.98332 -0.658045 
-262.848 93.3058 -248.581 84.8163 -47.894 83.9467 -176.222 34.8328 88.2717 -17.7805 22.9372 -1.76217 47.006 -8.61894 4.39552 44.6448 19.4873 9.21738 177.779 -9.27039 90.4667 -31.3426 -11.7851 -4.12153 36.0727 6.96053 7.2566 40.8199 0.908106 3.92773 1.39621 7.38717 -89.5817 12.0961 2.97323 0.507413 0.428502 2.99268 0.375943 -22.1291 2.68319 1.37812 -2.11647 2.68319 1.37812 87.4449 -44.0093 -106.495 33.1376 -18.3866 11.8525 -51.7471 10.252 -98.3444 -7.45057 -0.507891 -2.83693 -93.9897 -38.4564 69.1614 -49.0963 9.81862 42.6254 8.6859 -4.59492 -88.7411 30.7931 2.307 3.66903 12.4103 -5.1046 3.04079 2.44021 -5.69798 0.140415 
-252.297 93.156 -237.932 85.7556 -48.4956 87.2281 -173.229 32.8364 88.8912 -20.1118 18.3325 -3.54089 48.0055 -8.56793 3.28395 43.2576 17.1693 6.53313 178.97 -4.046 91.2639 -48.7263 2.46478 -4.05071 38.6476 4.20056 4.44461 33.147 0.111951 7.36827 1.41335 7.31677 -89.7777 12.2433 2.9145 0.119279 0.575641 2.91694 -0.00922652 -21.9836 2.74382 0.990356 -1.97097 2.74381 0.990357 87.0675 -44.8622 -106.835 36.298 -24.5901 16.6481 -29.6389 10.4919 -95.2045 -20.2249 -1.25957 3.07437 -93.2187 -39.0965 70.674 -48.1895 8.18328 42.1395 11.1498 -4.85248 -91.0619 29.6165 2.12638 3.35427 12.3755 -4.16354 3.37247 2.68759 -4.94577 -1.40729 
-242.617 91.851 -227.678 92.7415 -48.3364 90.1117 -171.701 24.5068 85.3375 -31.3778 16.5508 -4.41991 57.1199 1.6028 11.9768 36.2248 7.96554 -12.2519 177.282 5.39501 90.7915 -69.5621 11.9525 -4.54947 43.4357 1.30122 1.64822 35.6593 0.393556 10.5148 1.02285 7.70706 -89.4802 11.4505 2.2777 0.803429 -0.218748 2.31085 0.702356 -22.7636 1.93094 1.45099 -2.75096 1.93096 1.45098 85.2008 -47.5657 -108.912 36.4484 -22.918 22.0747 -26.11 -1.25167 -88.5383 -28.2685 -0.371304 -2.50219 -94.0152 -41.2981 70.1004 -45.0527 7.64655 38.0224 11.4626 -4.76531 -91.8518 31.1929 2.17784 3.14027 9.40989 -2.42857 3.08515 4.74908 -3.23266 -2.58382 
-233.369 90.5564 -217.455 90.4751 -47.2461 85.6076 -172.42 19.1377 82.4081 -37.5762 20.7839 -4.39095 62.0792 12.3742 23.0821 42.5308 14.2619 -6.82775 176.312 21.5407 86.8447 -79.3301 14.6716 -3.98544 51.19 -1.56105 -0.828713 43.0652 1.51958 10.2258 0.358526 7.69658 -88.9887 11.4698 1.18589 1.8908 -0.201736 1.26794 1.83679 -22.7279 0.562914 2.15967 -2.71525 0.562903 2.15966 82.684 -51.7871 -111.275 33.8542 -19.3164 24.1057 -22.0088 0.692091 -78.0191 -26.5064 -0.815392 -0.651677 -96.4139 -42.8184 66.7925 -38.6077 8.2558 29.109 10.153 -4.67882 -92.0964 30.9789 2.96915 5.83259 11.3991 -0.629781 1.11734 4.60173 -1.02931 -2.32238 
-224.1 91.1799 -207.656 90.2405 -43.0038 85.7918 -174.578 11.0562 83.1607 -38.3399 17.6831 -1.67196 62.7842 10.6245 16.6696 53.9033 24.9895 -7.48605 174.9 32.2107 87.3627 -72.8476 15.2346 -1.82516 56.8525 -2.3377 -1.36247 42.3241 1.21628 6.82158 -0.522648 7.64347 -89.0653 11.5884 -0.601932 1.9248 -0.0838788 -0.516646 1.94942 -22.6112 -1.15252 1.65504 -2.59852 -1.15251 1.65503 82.6337 -53.504 -110.765 34.2931 -17.1562 29.1958 -17.7036 -1.2427 -73.7294 -26.223 -1.36395 1.48432 -97.191 -41.265 64.9648 -35.4291 9.95097 22.4956 14.2181 -5.15319 -94.0512 31.6533 2.84517 5.204 10.6917 1.19593 0.161945 4.10125 1.07591 -0.771927 
-214.072 92.832 -197.635 91.8218 -44.9018 88.0887 -174.166 4.41785 86.5839 -39.7598 19.2921 -1.18122 51.8454 -4.33955 2.30925 50.8242 27.5013 10.0841 177.766 33.1882 87.573 -49.6855 16.0039 -0.761411 59.445 -1.21177 -0.619919 44.1424 1.30582 5.08635 -0.622495 7.62411 -89.3595 11.6302 -0.938078 1.37348 -0.0411789 -0.876737 1.41343 -22.5752 -1.30749 1.02809 -2.56257 -1.30749 1.02809 84.0049 -52.4074 -109.134 35.8086 -16.5686 35.4541 -16.0466 -1.0882 -77.7272 -27.4907 -1.23581 0.560372 -96.2193 -40.6557 66.2952 -35.0202 10.3403 20.893 14.158 -7.00534 -100.537 32.7134 2.96497 5.27527 8.72437 2.99495 0.684076 3.50758 2.8395 1.0826 
-204.286 93.1346 -187.258 93.5839 -42.9497 90.1809 -174.825 6.99625 88.6666 -52.0475 17.4755 -0.128966 43.0636 -11.3117 -0.527114 35.5188 7.75348 8.61876 179.463 28.8222 86.9998 -25.2688 10.1092 -0.326065 52.1239 2.4338 2.1197 42.1056 1.03703 3.10891 -0.854294 7.74367 -89.6363 11.3928 -1.53015 0.877573 -0.277564 -1.49002 0.944066 -22.8195 -1.72313 0.377021 -2.80683 -1.72314 0.377011 83.3845 -52.521 -110.004 33.4547 -15.9982 36.5681 -17.8703 -0.726196 -79.3237 -25.5173 -1.08351 0.288992 -96.2691 -40.9478 66.3264 -34.7994 10.3425 21.3662 14.6302 -6.7478 -101.099 30.1952 2.88748 5.75404 7.19603 2.97769 0.755469 4.19993 2.88882 1.94813 
-194.774 92.4788 -177.156 97.1498 -42.1461 92.6278 -174.358 14.6115 88.5698 -64.0039 14.5968 -0.225779 50.5775 -3.71416 7.21755 38.8567 11.4443 2.62332 178.656 26.0917 87.7075 -27.8389 6.73519 -0.0594692 51.8617 2.517 2.11313 30.485 -0.482503 8.19151 -0.601985 8.05849 -89.7711 10.7596 -1.09318 0.556146 -0.911064 -1.06764 0.603729 -23.4497 -1.20979 0.201857 -3.43709 -1.20978 0.201847 84.0844 -52.0893 -109.118 30.4178 -15.4701 32.4968 -20.6081 1.64316 -79.1521 -27.9705 -0.481255 -2.51754 -98.1187 -41.4355 63.5529 -34.132 10.5646 22.7857 16.7259 -4.67172 -89.5978 32.4172 0.561957 -2.15616 4.88416 1.2431 0.667932 6.06728 1.27013 2.13366 
